<svg width="34" height="22" viewBox="0 0 34 22" fill="none" xmlns="http://www.w3.org/2000/svg">
<path d="M10.9286 0C4.89357 0 0 4.92556 0 11C0 17.0744 4.89357 22 10.9286 22C16.9636 22 21.8571 17.0744 21.8571 11C21.8571 10.2453 21.7752 9.50889 21.6325 8.8L21.5718 8.55556H10.9286V12.2222H18.2143C17.6345 15.6903 14.538 18.3333 10.9286 18.3333C6.90321 18.3333 3.64286 15.0517 3.64286 11C3.64286 6.94833 6.90321 3.66667 10.9286 3.66667C12.75 3.66667 14.4105 4.345 15.6886 5.45722L18.2993 2.88444C16.3564 1.09389 13.77 0 10.9286 0ZM27.9286 4.88889V8.55556H24.2857V11H27.9286V14.6667H30.3571V11H34V8.55556H30.3571V4.88889H27.9286Z" fill="white"/>
</svg>
