<svg width="24" height="24" viewBox="0 0 24 24" fill="none" xmlns="http://www.w3.org/2000/svg">
<path d="M11.9993 0C15.2583 0 15.6673 0.0142502 16.9473 0.0725002C18.2248 0.131 19.0968 0.33325 19.8598 0.63C20.649 0.9365 21.3185 1.3465 21.9855 2.01375C22.653 2.68075 23.063 3.35025 23.3705 4.13925C23.668 4.9025 23.8705 5.77475 23.928 7.05175C23.985 8.33175 24 8.741 24 12C24 15.259 23.9855 15.6668 23.9275 16.9468C23.8687 18.2243 23.6665 19.0962 23.37 19.8592C23.0632 20.6485 22.6533 21.318 21.986 21.985C21.3193 22.6525 20.6498 23.0635 19.861 23.37C19.0975 23.6667 18.2253 23.869 16.948 23.9275C15.668 23.9858 15.2593 24 12.0005 24C8.74125 24 8.3335 23.9858 7.0535 23.9275C5.776 23.869 4.903 23.6667 4.1395 23.37C3.3505 23.0635 2.682 22.6525 2.01525 21.985C1.34775 21.318 0.937752 20.6485 0.630253 19.8595C0.335253 19.0963 0.132751 18.224 0.072752 16.947C0.0152512 15.667 0.00025177 15.259 0.00025177 12C0.00025177 8.741 0.0152512 8.332 0.072752 7.052C0.132751 5.7745 0.335253 4.9025 0.630253 4.1395C0.937752 3.35025 1.34775 2.68075 2.01525 2.01375C2.68275 1.34625 3.35025 0.93625 4.14025 0.63C4.90525 0.33325 5.77775 0.131 7.05525 0.0725002C8.33525 0.0142502 8.74275 0 12.0028 0H11.9993ZM13.0758 2.1625C12.7563 2.162 12.3998 2.1625 11.9993 2.1625C8.79525 2.1625 8.4155 2.174 7.15025 2.2315C5.98025 2.285 5.34525 2.4805 4.92225 2.64475C4.36225 2.86225 3.963 3.12225 3.54325 3.54225C3.12325 3.96225 2.86325 4.36225 2.64525 4.92225C2.481 5.34475 2.28525 5.97975 2.232 7.14975C2.1745 8.41475 2.162 8.79475 2.162 11.9972C2.162 15.1997 2.1745 15.5797 2.232 16.8447C2.2855 18.0147 2.481 18.6497 2.64525 19.0723C2.86275 19.6322 3.12325 20.031 3.54325 20.4508C3.96325 20.8708 4.362 21.1307 4.92225 21.3482C5.34475 21.5133 5.98025 21.7083 7.15025 21.7617C8.41525 21.8193 8.79525 21.8318 11.9993 21.8318C15.2035 21.8318 15.5833 21.8193 16.8483 21.7617C18.0183 21.7077 18.6533 21.5122 19.0765 21.348C19.6365 21.1305 20.0365 20.8705 20.4565 20.4505C20.8765 20.0305 21.1365 19.6315 21.3545 19.0713C21.5187 18.6488 21.7145 18.0138 21.7678 16.8438C21.8252 15.5787 21.8368 15.1987 21.8368 11.9942C21.8368 8.78975 21.8252 8.41175 21.7678 7.14675C21.7142 5.97675 21.5187 5.34175 21.3545 4.91875C21.137 4.35875 20.8765 3.95875 20.4565 3.53875C20.0365 3.11875 19.6365 2.85875 19.0765 2.64075C18.6535 2.47575 18.0183 2.28075 16.8483 2.227C15.7413 2.177 15.3123 2.162 13.0758 2.1595V2.1625ZM5.59375 4.155C5.87858 4.155 6.15701 4.23947 6.39383 4.39772C6.63064 4.55597 6.81521 4.7809 6.92419 5.04405C7.03316 5.30721 7.06165 5.59677 7.00605 5.87611C6.95044 6.15546 6.81325 6.41204 6.61181 6.61341C6.41037 6.81478 6.15374 6.95189 5.87438 7.00739C5.59501 7.0629 5.30546 7.03431 5.04234 6.92524C4.77922 6.81618 4.55436 6.63153 4.39619 6.39466C4.23802 6.15778 4.15365 5.87933 4.15375 5.5945C4.15375 4.7995 4.79875 4.1545 5.59375 4.1545V4.155ZM11.9993 5.8375C15.4025 5.8375 18.1618 8.59675 18.1618 12C18.1618 15.4032 15.4025 18.1612 11.9993 18.1612C8.596 18.1612 5.8375 15.4032 5.8375 12C5.8375 8.59675 8.59625 5.8375 11.9995 5.8375H11.9993ZM11.9993 8C9.79025 8 7.99925 9.79075 7.99925 12C7.99925 14.209 9.79025 16 11.9993 16C14.2085 16 15.9993 14.209 15.9993 12C15.9993 9.79075 14.2085 8 11.9993 8Z" fill="white"/>
</svg>
