<svg width="24" height="24" viewBox="0 0 24 24" fill="none" xmlns="http://www.w3.org/2000/svg">
<path d="M12 0C5.38324 0 0 5.38309 0 11.9999C0 18.6168 5.38324 24 12 24C18.6168 24 24 18.6168 24 11.9999C24 5.38309 18.6169 0 12 0ZM18.8906 9.97305L11.3516 17.512C11.0311 17.8326 10.6049 18.009 10.1517 18.009C9.69837 18.009 9.27225 17.8326 8.9517 17.512L5.10939 13.6697C4.78883 13.3492 4.61227 12.923 4.61227 12.4698C4.61227 12.0163 4.78883 11.5902 5.10939 11.2697C5.42982 10.9491 5.85594 10.7726 6.30935 10.7726C6.76264 10.7726 7.18888 10.9491 7.50931 11.2698L10.1515 13.9119L16.4904 7.57301C16.811 7.25245 17.2371 7.07602 17.6904 7.07602C18.1437 7.07602 18.5698 7.25245 18.8904 7.57301C19.5523 8.23491 19.5523 9.3114 18.8906 9.97305Z" fill="#3B5971"/>
</svg>
