<svg width="156" height="41" viewBox="0 0 156 41" fill="none" xmlns="http://www.w3.org/2000/svg">
<path d="M29.7792 39.1118L16.5496 19.7816C19.8495 19.7816 22.7619 19.7816 25.6777 19.7816C26.3658 19.7816 26.6096 20.2569 26.9169 20.7089C27.9656 22.2444 29.0177 23.7766 30.0932 25.362C33.6636 20.2104 31.2355 12.2935 25.2669 9.25571C23.6978 8.45186 21.9682 8.0067 20.2042 7.95271C18.4402 7.89873 16.6863 8.23728 15.0705 8.94367C13.4548 9.65006 12.0178 10.7065 10.8646 12.0358C9.7113 13.3652 8.8708 14.934 8.40437 16.6277C7.93795 18.3215 7.85737 20.0975 8.16852 21.8262C8.47966 23.5548 9.17468 25.1926 10.2029 26.62C11.2311 28.0473 12.5665 29.2283 14.1117 30.0767C15.6569 30.9251 17.373 31.4196 19.1347 31.524C19.8461 31.5639 20.3705 31.6902 20.8047 32.3416C22.0271 34.2427 23.2897 36.1194 24.5922 37.9718C25.0899 38.6831 25.0331 38.9091 24.1313 39.1284C13.4568 41.7076 2.03072 34.0998 0.267213 23.2116C-1.47291 12.473 5.46421 2.32264 15.8816 0.368346C26.7666 -1.66571 36.9435 4.90509 39.2881 15.6171C40.5607 21.4235 39.3349 26.7845 35.7778 31.5705C35.18 32.3782 35.1499 32.9 35.7311 33.6943C36.9201 35.3561 37.9855 37.0811 39.1044 38.7828C39.0571 38.9115 38.9725 39.0235 38.8614 39.1045C38.7503 39.1855 38.6175 39.232 38.4799 39.2381C35.5808 39.2148 32.675 39.4409 29.7792 39.1118Z" fill="#3B5971"/>
<path d="M57.0982 32.6662C55.5143 32.6662 54.0823 32.396 52.8022 31.8555C51.5438 31.3151 50.5458 30.5368 49.8081 29.5208C49.0704 28.5047 48.6907 27.3049 48.669 25.9214H53.5508C53.6159 26.851 53.9413 27.586 54.5271 28.1264C55.1346 28.6669 55.9591 28.9371 57.0005 28.9371C58.0637 28.9371 58.899 28.6885 59.5065 28.1913C60.114 27.6724 60.4177 27.0023 60.4177 26.1808C60.4177 25.5106 60.2116 24.9594 59.7994 24.527C59.3872 24.0947 58.8664 23.7596 58.2372 23.5218C57.6297 23.2624 56.7836 22.9813 55.6987 22.6787C54.2234 22.2463 53.0192 21.8248 52.0863 21.414C51.175 20.9816 50.3831 20.3439 49.7105 19.5008C49.0596 18.6361 48.7341 17.4903 48.7341 16.0635C48.7341 14.7232 49.0704 13.5558 49.743 12.5614C50.4156 11.567 51.3594 10.8103 52.5744 10.2915C53.7894 9.75105 55.178 9.48082 56.7402 9.48082C59.0834 9.48082 60.9819 10.0537 62.4355 11.1995C63.9109 12.3236 64.7245 13.9017 64.8764 15.9338H59.8645C59.8211 15.1556 59.4848 14.5178 58.8556 14.0206C58.2481 13.5018 57.4345 13.2424 56.4147 13.2424C55.5252 13.2424 54.8092 13.4694 54.2668 13.9233C53.746 14.3773 53.4857 15.0367 53.4857 15.9014C53.4857 16.5067 53.681 17.0147 54.0715 17.4255C54.4837 17.8146 54.9827 18.1389 55.5686 18.3983C56.1761 18.6361 57.0222 18.9171 58.1071 19.2414C59.5824 19.6737 60.7866 20.1061 61.7195 20.5385C62.6525 20.9708 63.4553 21.6194 64.1279 22.4841C64.8005 23.3488 65.1367 24.4838 65.1367 25.889C65.1367 27.0996 64.8222 28.2237 64.193 29.2614C63.5638 30.299 62.6416 31.1313 61.4266 31.7583C60.2116 32.3636 58.7688 32.6662 57.0982 32.6662Z" fill="#3B5971"/>
<path d="M79.2409 14.2152C80.6078 14.2152 81.8228 14.5178 82.8859 15.1231C83.949 15.7068 84.7735 16.5824 85.3593 17.7497C85.9668 18.8955 86.2706 20.2791 86.2706 21.9004V32.4392H81.7143V22.5165C81.7143 21.0897 81.3563 19.998 80.6403 19.2414C79.9243 18.4631 78.948 18.074 77.7113 18.074C76.4529 18.074 75.4548 18.4631 74.7171 19.2414C74.0012 19.998 73.6432 21.0897 73.6432 22.5165V32.4392H69.0869V8.44315H73.6432V16.7121C74.229 15.9338 75.01 15.3285 75.9864 14.8962C76.9627 14.4422 78.0476 14.2152 79.2409 14.2152Z" fill="#3B5971"/>
<path d="M98.6094 32.7311C96.8737 32.7311 95.3115 32.3528 93.9229 31.5961C92.5344 30.8179 91.4387 29.7262 90.6359 28.321C89.8548 26.9158 89.4643 25.2945 89.4643 23.4569C89.4643 21.6194 89.8657 19.998 90.6685 18.5928C91.4929 17.1877 92.6103 16.1068 94.0206 15.3501C95.4309 14.5719 97.0039 14.1828 98.7396 14.1828C100.475 14.1828 102.048 14.5719 103.459 15.3501C104.869 16.1068 105.975 17.1877 106.778 18.5928C107.603 19.998 108.015 21.6194 108.015 23.4569C108.015 25.2945 107.592 26.9158 106.746 28.321C105.921 29.7262 104.793 30.8179 103.361 31.5961C101.951 32.3528 100.367 32.7311 98.6094 32.7311ZM98.6094 28.775C99.4339 28.775 100.204 28.5804 100.92 28.1913C101.658 27.7805 102.244 27.1752 102.678 26.3754C103.111 25.5755 103.328 24.6027 103.328 23.4569C103.328 21.7491 102.873 20.4412 101.962 19.5332C101.072 18.6037 99.9763 18.1389 98.6745 18.1389C97.3727 18.1389 96.277 18.6037 95.3875 19.5332C94.5196 20.4412 94.0857 21.7491 94.0857 23.4569C94.0857 25.1647 94.5088 26.4834 95.3549 27.413C96.2228 28.321 97.3076 28.775 98.6094 28.775Z" fill="#3B5971"/>
<path d="M115.913 17.0688C116.499 16.2473 117.302 15.5663 118.322 15.0259C119.363 14.4638 120.546 14.1828 121.869 14.1828C123.41 14.1828 124.798 14.5611 126.035 15.3177C127.293 16.0743 128.28 17.1552 128.996 18.5604C129.734 19.944 130.103 21.5545 130.103 23.3921C130.103 25.2296 129.734 26.8618 128.996 28.2886C128.28 29.6937 127.293 30.7854 126.035 31.5637C124.798 32.342 123.41 32.7311 121.869 32.7311C120.546 32.7311 119.374 32.4609 118.354 31.9204C117.356 31.3799 116.543 30.699 115.913 29.8775V41H111.357V14.4746H115.913V17.0688ZM125.449 23.3921C125.449 22.3112 125.221 21.3816 124.766 20.6033C124.332 19.8035 123.746 19.1982 123.008 18.7874C122.292 18.3767 121.511 18.1713 120.665 18.1713C119.84 18.1713 119.059 18.3875 118.322 18.8198C117.606 19.2306 117.02 19.8359 116.564 20.6358C116.13 21.4356 115.913 22.376 115.913 23.4569C115.913 24.5378 116.13 25.4782 116.564 26.2781C117.02 27.0779 117.606 27.6941 118.322 28.1264C119.059 28.5372 119.84 28.7425 120.665 28.7425C121.511 28.7425 122.292 28.5264 123.008 28.094C123.746 27.6616 124.332 27.0455 124.766 26.2456C125.221 25.4458 125.449 24.4946 125.449 23.3921Z" fill="#3B5971"/>
<path d="M150.337 36.4278L146.887 32.3095C145.933 32.5473 144.956 32.6662 143.958 32.6662C141.832 32.6662 139.879 32.169 138.1 31.1746C136.321 30.1801 134.911 28.8074 133.869 27.0563C132.828 25.2836 132.307 23.284 132.307 21.0573C132.307 18.8523 132.828 16.8742 133.869 15.1231C134.911 13.3505 136.321 11.9669 138.1 10.9725C139.879 9.97803 141.832 9.48082 143.958 9.48082C146.106 9.48082 148.059 9.97803 149.816 10.9725C151.596 11.9669 152.995 13.3505 154.015 15.1231C155.056 16.8742 155.577 18.8523 155.577 21.0573C155.577 23.0678 155.143 24.9053 154.275 26.5699C153.429 28.2129 152.268 29.5532 150.793 30.5909L156 36.4278H150.337ZM136.994 21.0573C136.994 22.5706 137.287 23.9001 137.872 25.0458C138.458 26.1916 139.272 27.0779 140.313 27.7049C141.376 28.3102 142.592 28.6128 143.958 28.6128C145.325 28.6128 146.529 28.3102 147.571 27.7049C148.612 27.0779 149.426 26.1916 150.012 25.0458C150.598 23.9001 150.89 22.5706 150.89 21.0573C150.89 19.544 150.598 18.2253 150.012 17.1012C149.426 15.9554 148.612 15.0799 147.571 14.4746C146.529 13.8693 145.325 13.5666 143.958 13.5666C142.592 13.5666 141.376 13.8693 140.313 14.4746C139.272 15.0799 138.458 15.9554 137.872 17.1012C137.287 18.2253 136.994 19.544 136.994 21.0573Z" fill="#3B5971"/>
</svg>
