<svg width="30" height="30" viewBox="0 0 30 30" fill="none" xmlns="http://www.w3.org/2000/svg">
<path fill-rule="evenodd" clip-rule="evenodd" d="M19.5262 11.756C19.9017 12.1315 19.9017 12.7403 19.5262 13.1158L14.3979 18.244C14.0224 18.6195 13.4136 18.6195 13.0381 18.244L10.474 15.6799C10.0985 15.3044 10.0985 14.6956 10.474 14.3201C10.8495 13.9446 11.4583 13.9446 11.8338 14.3201L13.7181 16.2043L18.1663 11.756C18.5418 11.3805 19.1506 11.3805 19.5262 11.756Z" fill="#3B5971"/>
<path fill-rule="evenodd" clip-rule="evenodd" d="M15 4.42307C9.15852 4.42307 4.42307 9.15852 4.42307 15C4.42307 20.8415 9.15852 25.5769 15 25.5769C20.8415 25.5769 25.5769 20.8415 25.5769 15C25.5769 9.15852 20.8415 4.42307 15 4.42307ZM2.5 15C2.5 8.09644 8.09644 2.5 15 2.5C21.9035 2.5 27.5 8.09644 27.5 15C27.5 21.9035 21.9035 27.5 15 27.5C8.09644 27.5 2.5 21.9035 2.5 15Z" fill="#3B5971"/>
</svg>
