<svg width="28" height="22" viewBox="0 0 28 22" fill="none" xmlns="http://www.w3.org/2000/svg">
<path d="M8.80569 22C19.3723 22 25.1507 13.5368 25.1507 6.19786C25.1507 5.9575 25.1456 5.71824 25.1345 5.47997C26.2587 4.69348 27.2291 3.71962 28 2.60405C26.9707 3.04643 25.863 3.34419 24.7011 3.47845C25.8871 2.79081 26.7976 1.70321 27.2272 0.40659C26.0995 1.05338 24.8658 1.5093 23.5793 1.75471C22.5311 0.675197 21.0387 0 19.3861 0C16.2137 0 13.6411 2.48723 13.6411 5.55309C13.6411 5.98893 13.6915 6.41287 13.7901 6.81946C9.0156 6.58719 4.78192 4.3772 1.94851 1.01675C1.4382 1.86425 1.16976 2.82754 1.17063 3.80819C1.17063 5.73504 2.18482 7.43607 3.72705 8.4312C2.81481 8.40429 1.92258 8.16607 1.12534 7.73656C1.1245 7.75991 1.1245 7.78262 1.1245 7.80751C1.1245 10.4972 3.10467 12.7429 5.73325 13.2518C5.23956 13.3818 4.73013 13.4475 4.21845 13.4473C3.85609 13.447 3.49457 13.4135 3.13878 13.3471C3.87015 15.5538 5.99089 17.1596 8.50522 17.2045C6.53904 18.6944 4.0622 19.5818 1.37029 19.5818C0.907169 19.5818 0.449685 19.5564 0 19.505C2.54242 21.0805 5.56131 21.9997 8.80598 21.9997" fill="white"/>
</svg>
