<svg width="40" height="40" viewBox="0 0 40 40" fill="none" xmlns="http://www.w3.org/2000/svg">
<path d="M30.2619 39.9401L18.4 22.3664C21.7184 22.3664 22.8895 19.9348 25.8217 19.9348C26.5135 19.9348 26.7587 20.4138 27.0677 20.8693C28.1224 22.4167 29.1804 23.9607 30.2619 25.5584C33.8523 20.3669 31.4105 12.3887 25.4085 9.32739C23.8306 8.51731 22.0913 8.0687 20.3174 8.0143C18.5435 7.95989 16.7798 8.30107 15.155 9.01293C13.5302 9.72479 12.0852 10.7894 10.9255 12.129C9.76573 13.4687 8.92051 15.0496 8.45148 16.7565C7.98244 18.4633 7.90141 20.2531 8.2143 21.9952C8.52719 23.7372 9.2261 25.3877 10.26 26.8261C11.294 28.2645 12.6369 29.4546 14.1908 30.3096C15.7447 31.1646 18.2284 31.8468 20 31.9521C20.7154 31.9923 20.4847 31.9356 20.9213 32.592C22.1506 34.5079 23.3588 36.4758 24.6687 38.3425C25.1692 39.0592 25.1734 39.2104 24.2666 39.4314C13.5322 42.0305 2.0421 34.3639 0.26871 23.3913C-1.48117 12.5696 5.49484 2.34062 15.9706 0.371198C26.9166 -1.67861 37.1505 4.94307 39.5083 15.7381C40.788 21.5894 39.5554 26.9919 35.9784 31.815C35.3771 32.6289 35.3469 33.1547 35.9313 33.9552C37.127 35.6299 38.1984 37.3682 39.3236 39.0831C39.276 39.2129 38.8 39.1413 38.8 39.1413C38.4 39.1413 38.1384 39.1351 38 39.1413C35.0847 39.1178 33.1738 40.2717 30.2619 39.9401Z" fill="#098bf5"/>
</svg>
